# xmcd
#
# Track frame offsets: 
#        150
#        21375
#        51355
#        76897
#        93830
#        116697
#        136342
#        164915
#        182917
#        208609
#
# Disc length: 3123 seconds
#
# Revision: 3
# Processed by: cddbd v1.5.2PL0 Copyright (c) Steve Scherf et al.
# Submitted via: ExactAudioCopy v0.99pb3
#
DISCID=8c0c310a
DTITLE=Marvin Sease - The Bitch Git It All
DYEAR=1997
DGENRE=R&B
TTITLE0=The Bitch Git It All
TTITLE1=Come On Home
TTITLE2=From My Hearty
TTITLE3=Let Me Dream
TTITLE4=Show Me
TTITLE5=Are You Still Mine
TTITLE6=Let's Make It Right
TTITLE7=Baby I'm Leaving You
TTITLE8=Too Many Fishes In The Ocean
TTITLE9=Hold On
EXTD=
EXTT0=
EXTT1=
EXTT2=
EXTT3=
EXTT4=
EXTT5=
EXTT6=
EXTT7=
EXTT8=
EXTT9=
PLAYORDER=
